<?xml version="1.0" encoding="UTF-8"?><svg id="Capa_2" xmlns="http://www.w3.org/2000/svg" viewBox="0 0 89.15 89.15"><defs><style>.cls-1{fill:#5d184c;}</style></defs><g id="Capa_1-2"><g><path class="cls-1" d="M77.41,74.12c-.16,0-.26-.11-.31-.19-.08-.13-.13-.36,0-.58,.11-.2,.28-.39,.46-.6,.06-.06,.11-.13,.17-.2,5.06-6.06,8.29-12.99,9.59-20.59,.02-.1,.02-.19,.02-.28,0-.04,0-.08,0-.13l.05-.75h-.76c-.13,0-.25,0-.38,0-.13,0-.26,0-.39,0-.18,0-.34,0-.49,.02-.36,.03-.72,.04-1.08,.04-6.27,0-11.7-3.79-13.83-9.66-.47-1.3-1.28-2.01-2.63-2.28-9.22-1.87-16.77-10.06-17.94-19.47-.71-5.69,.44-10.96,3.4-15.69,.08-.12,.14-.24,.21-.4,.04-.08,.09-.17,.15-.29l.46-.89-.99-.14c-.48-.07-.95-.14-1.41-.21-1.01-.16-1.97-.31-2.96-.4-1.44-.13-2.87-.19-4.27-.19-8.14,0-15.78,2.19-22.69,6.52-1.43,.9-2.78,1.94-4.08,2.95-.5,.39-1.01,.78-1.52,1.17-.36,.27-.55,.33-.64,.33h0s-.06,0-.13-.07c-.14-.13-.28-.46-.33-.81,.04-.07,.14-.2,.28-.32C21.59,5.59,28.77,2.13,36.73,.72c1.19-.21,2.42-.36,3.61-.51,.55-.07,1.1-.14,1.64-.21h5.21l1.14,.15c.97,.13,1.94,.25,2.91,.38,.65,.09,1.23,.19,1.78,.3,.86,.18,1.48,.62,1.74,1.23,.26,.62,.14,1.37-.33,2.12-1.43,2.25-2.39,4.49-2.94,6.84-1.39,5.9-.41,11.92,2.77,16.95,3.19,5.06,8.24,8.56,14.21,9.86,1.55,.34,2.48,1.12,2.92,2.46,1.83,5.59,7.01,9.34,12.9,9.34h0c.56,0,1.14-.03,1.71-.1,.14-.02,.28-.02,.41-.02,.86,0,1.38,.35,1.66,.64,.35,.36,.54,.86,.52,1.34-.02,.51-.13,1.03-.25,1.59l-.06,.31c-1.57,7.66-4.95,14.51-10.04,20.36-.17,.19-.56,.37-.82,.37h0Z"/><path class="cls-1" d="M44.34,89.15c-.54,0-1.08,0-1.62-.03-9.64-.31-19.15-4-26.77-10.4-7.62-6.4-12.91-15.13-14.88-24.58-.28-1.32-.46-2.71-.63-4.04-.09-.66-.18-1.35-.28-2.03-.03-.21-.08-.4-.12-.59-.01-.05-.03-.1-.04-.15v-5.53c.06-.41,.11-.81,.16-1.22,.12-.89,.24-1.82,.38-2.72,1.31-8.36,4.81-15.91,10.39-22.43,.24-.28,.46-.44,.61-.44,.04,0,.09,.01,.15,.04,.2,.1,.42,.41,.44,.53,.01,.11-.13,.45-.41,.78-2.48,2.93-4.61,6.22-6.33,9.76C-2.38,42.15,.98,62.2,13.56,74.88c7.09,7.14,15.54,11.4,25.11,12.65,2.09,.27,4.17,.41,6.19,.41,9.91,0,19.06-3.31,27.22-9.85,.16-.13,.31-.26,.46-.39,.16-.14,.32-.27,.48-.4,.24-.19,.47-.29,.64-.29,.06,0,.21,0,.39,.23,.1,.13,.14,.26,.12,.41-.02,.19-.15,.37-.35,.53-.36,.28-.72,.57-1.08,.85-1.25,.99-2.54,2.01-3.88,2.88-7.38,4.8-15.63,7.24-24.53,7.24Z"/><path class="cls-1" d="M70.28,21.52c-.17-.04-.35-.07-.52-.1-.42-.08-.82-.15-1.19-.27-1.19-.4-2.39-.85-3.68-1.37-2.19-.89-3.4-3.06-3-5.42,.05-.27,.09-.53,.13-.8,.08-.51,.17-1.03,.26-1.54,.37-1.94,1.46-3.19,3.33-3.83,1.55-.53,3.16-.98,4.53-1.35,.48-.13,.96-.2,1.44-.2,1.45,0,2.8,.63,3.7,1.72,.92,1.12,1.27,2.58,.97,4.1-.32,1.65-.76,3.43-1.39,5.59-.59,2.01-2.38,3.37-4.57,3.48Zm1.31-13.68c-.32,0-.65,.04-.98,.12-1.47,.37-2.92,.83-4.33,1.28l-.36,.11c-1.31,.42-2.15,1.36-2.43,2.72-.12,.58-.21,1.16-.31,1.72-.04,.22-.07,.43-.11,.65-.33,1.93,.55,3.52,2.34,4.24,1.2,.48,2.44,.93,3.5,1.3,.32,.11,.64,.17,.85,.2,.05,0,.1,.02,.13,.02l.08,.02h.08c1.84-.01,3.26-1.03,3.7-2.67,.51-1.87,.93-3.59,1.3-5.25,.25-1.15,0-2.31-.69-3.17-.67-.83-1.68-1.31-2.78-1.31Z"/><path class="cls-1" d="M54.51,69.31c-3.42,0-6.22-2.8-6.25-6.25-.01-1.68,.62-3.25,1.79-4.43,1.17-1.19,2.74-1.84,4.43-1.85h.04c3.44,0,6.26,2.79,6.28,6.22,.01,1.65-.63,3.22-1.83,4.43-1.19,1.21-2.76,1.88-4.42,1.89h-.05Zm.01-11.33c-2.8,0-5.02,2.19-5.05,4.98-.01,1.37,.51,2.67,1.47,3.64,.95,.97,2.22,1.5,3.56,1.51h0c1.36,0,2.64-.54,3.61-1.52,.97-.98,1.5-2.26,1.49-3.6-.02-2.76-2.29-5.01-5.06-5.01h-.01Z"/><path class="cls-1" d="M24.73,36.66c-3.46,0-6.28-2.8-6.28-6.24,0-3.4,2.86-6.28,6.27-6.3h.03c3.43,0,6.23,2.81,6.24,6.27,0,1.68-.64,3.26-1.81,4.44-1.17,1.18-2.74,1.83-4.43,1.83h-.01Zm-.02-11.33c-1.33,0-2.59,.53-3.56,1.51-.97,.97-1.5,2.24-1.5,3.57,0,2.78,2.29,5.05,5.09,5.05h.04c2.8-.02,5-2.24,5-5.05,0-2.76-2.24-5.04-5-5.07h-.07Z"/><path class="cls-1" d="M78.12,37.62c-1.34,0-2.5-.77-3.12-2.07-.5-1.06-.98-2.19-1.43-3.36-.63-1.65-.01-3.38,1.51-4.2,.18-.1,.37-.2,.55-.31,.91-.51,1.76-1,2.73-1,.06,0,.12,0,.18,0h.03c1.92,.05,4.81,2.43,5.15,4.26,.19,.99-.05,1.89-.72,2.74-.79,.99-1.52,1.87-2.24,2.68-.72,.81-1.66,1.25-2.66,1.25Zm-.02-9.76c-.21,.1-.43,.2-.65,.3-.52,.24-1.07,.49-1.6,.77-1.19,.62-1.6,1.73-1.11,2.96,.45,1.13,.89,2.15,1.35,3.12,.42,.88,1.18,1.41,2.03,1.41h0c.62,0,1.23-.29,1.71-.81,.72-.79,1.46-1.67,2.25-2.68,.82-1.06,.68-2.3-.37-3.17-.56-.46-1.18-.93-1.96-1.47-.24-.16-.48-.24-.74-.33-.11-.03-.22-.07-.35-.12l-.28-.11-.27,.13Z"/><path class="cls-1" d="M27.56,63.64c-2.64,0-4.86-2.24-4.86-4.88,0-2.66,2.19-4.82,4.87-4.82,1.31,0,2.52,.5,3.43,1.4,.9,.91,1.4,2.13,1.4,3.44,0,2.68-2.17,4.86-4.83,4.86h-.01Zm.01-8.5c-2.01,0-3.62,1.57-3.67,3.56-.02,.95,.36,1.9,1.06,2.61,.69,.71,1.64,1.12,2.6,1.12h.03c2.02-.02,3.6-1.62,3.61-3.65,0-2.03-1.58-3.62-3.6-3.64h-.02Z"/><path class="cls-1" d="M43.12,40.91c-1.89-.03-3.38-1.53-3.38-3.42,0-.92,.36-1.78,1.02-2.44,.65-.65,1.51-1.01,2.41-1.01,.93,0,1.79,.37,2.44,1.03,.65,.66,1,1.53,.99,2.45-.02,1.9-1.52,3.39-3.42,3.39h-.05Zm.02-5.64c-1.24,.02-2.19,1.01-2.18,2.25,.01,1.22,.99,2.18,2.21,2.18h.03c.6,0,1.16-.24,1.56-.66,.41-.42,.62-.98,.62-1.58-.02-1.23-.99-2.19-2.21-2.19h-.03Z"/><path class="cls-1" d="M85.72,22.47c-.93,0-1.8-.36-2.44-1-.64-.64-.99-1.5-.99-2.42,0-1.89,1.54-3.44,3.42-3.44h.03c1.87,.02,3.39,1.55,3.41,3.41,0,.92-.34,1.79-.98,2.44-.64,.65-1.51,1.01-2.44,1.01h0Zm0-5.65c-1.19,0-2.21,1.01-2.22,2.22,0,.59,.22,1.15,.63,1.57,.42,.42,.97,.66,1.57,.66h0c1.24,0,2.24-.98,2.25-2.19,.01-1.21-1-2.24-2.21-2.26h-.03Z"/><path class="cls-1" d="M54.61,49.36c-.16,0-.44-.13-.53-.22-.04-.11-.06-.36-.05-.52,.81-.54,1.69-1.02,2.62-1.52,.22-.12,.44-.24,.66-.36,.03,.03,.07,.06,.1,.08,.15,.12,.38,.31,.42,.39,.03,.14-.05,.49-.12,.61-.97,.62-2.01,1.14-3.1,1.54Z"/><path class="cls-1" d="M70.27,57.82c-.26,0-.51-.09-.59-.15-.64-.97-1.13-2.05-1.56-3.08-.05-.12-.05-.25-.01-.34,.03-.06,.07-.11,.15-.13,.1-.04,.31-.07,.52-.07,.08,0,.13,0,.18,.01,.53,.8,.99,1.66,1.48,2.57,.12,.22,.24,.45,.36,.68-.03,.03-.05,.06-.07,.09-.11,.14-.27,.35-.35,.41-.02,0-.05,0-.1,0Z"/><path class="cls-1" d="M34.74,72.06c-.14-.02-.46-.17-.64-.35-.08-.08-.1-.2-.1-.27,0-.04,.02-.1,.07-.13,.8-.52,1.66-.97,2.58-1.45,.26-.14,.52-.27,.79-.41,.04,.03,.07,.05,.11,.08,.14,.1,.34,.25,.41,.32,.03,.2-.05,.56-.13,.68-.93,.61-1.97,1.12-3.08,1.54Z"/><path class="cls-1" d="M16.39,46.47c-.27,0-.54-.1-.61-.16-.6-.91-1.11-1.93-1.51-3.03,0-.13,.11-.41,.2-.51,.06-.02,.21-.06,.42-.06,.08,0,.14,0,.18,.01,.53,.79,.98,1.65,1.47,2.56,.12,.22,.24,.45,.36,.68-.03,.04-.06,.07-.08,.1-.11,.14-.26,.34-.35,.4-.02,0-.05,0-.08,0Z"/><path class="cls-1" d="M37.46,16.82c-.18-.08-.33-.15-.4-.21-.49-.43-.96-.89-1.38-1.37-.25-.28-.26-.61-.02-.85,.13-.13,.26-.19,.4-.19,.18,0,.34,.11,.45,.21l.23,.2c.44,.39,.85,.75,1.1,1.16,.11,.18,.14,.57,.08,.81-.06,.06-.24,.17-.36,.24-.02,0-.03,.02-.05,.03-.02,0-.04-.02-.05-.02Z"/><path class="cls-1" d="M41.66,25.3c-.11-.07-.32-.2-.37-.27-.07-.17-.05-.51,0-.6,.44-.61,1.05-1.16,1.6-1.63,.1-.08,.21-.13,.3-.13,.08,0,.14,.03,.2,.1,.13,.16,.25,.46,.28,.62-.42,.55-.94,1.04-1.48,1.56-.12,.12-.25,.24-.37,.36,0,0-.08,0-.13,.01-.01,0-.02-.01-.03-.02Z"/><path class="cls-1" d="M34.64,49.35c-.16,0-.25-.03-.27-.04-.53-.39-1.07-.92-1.67-1.65-.08-.1-.12-.21-.1-.31,0-.07,.05-.13,.11-.18,.17-.12,.48-.24,.65-.26,.53,.41,1.01,.92,1.51,1.46,.12,.13,.24,.26,.36,.39,0,0,0,.09,.01,.13,0,.01-.01,.03-.02,.04-.07,.11-.19,.33-.26,.37-.05,.02-.18,.05-.32,.05Z"/><path class="cls-1" d="M50.25,79.22c-.22,0-.58-.01-.58-1.31v-.09c0-1.19,.29-1.2,.59-1.2h0c.27,0,.61,.01,.61,1.25,0,.87-.19,1.16-.28,1.24-.03,.03-.1,.1-.33,.1h-.02Z"/></g></g></svg>