<?xml version="1.0" encoding="UTF-8"?><svg id="Capa_2" xmlns="http://www.w3.org/2000/svg" viewBox="0 0 103.17 89.15"><defs><style>.cls-1{fill:#5d184c;}</style></defs><g id="Capa_1-2"><g><path class="cls-1" d="M55.62,89.15c-8.77,0-14.45-6.13-16.01-11.83-.02-.06-.03-.12-.05-.18-.02-.08-.05-.16-.06-.2-.21-1.56-.62-3.31-2.88-4.25-1.54-.64-1.51-2.55-1.43-3.34,.14-1.35,.85-2.33,2.18-3,.16-.08,.34-.15,.56-.23,.12-.04,.24-.09,.36-.14l.78-.31-.32-.77c-.67-1.59-.67-3.03,0-4.52l.36-.81-.84-.3c-2.54-.9-3.47-2.57-2.95-5.25l.19-.98h-10.13c-1.63,0-3.27,0-4.9,0-8.57-.02-15.03-5.49-16.47-13.92-.12-.73-.41-1.53-1.58-1.91C1.05,36.77,.05,35.39,0,33.86c-.05-1.59,.83-2.97,2.3-3.6,.18-.08,.36-.15,.55-.23l.31-.13,.78-.32-.34-.77c-.7-1.59-.7-3.01,0-4.47l.36-.76-1.09-.49c-.23-.1-.45-.2-.67-.3C.79,22.14-.07,20.74,.01,19.24c.09-1.66,.89-2.78,2.38-3.33,1.21-.44,1.51-1.25,1.66-2.05C5.33,6.9,9.29,2.53,16.17,.5c.48-.14,.97-.25,1.48-.36,.21-.05,.43-.09,.64-.14h31.33c.38,.1,.76,.19,1.15,.28,.95,.22,1.84,.43,2.71,.74,.81,.28,1.6,.67,2.43,1.08,.11,.06,.23,.11,.35,.17l-.75,1.15c-.13-.06-.25-.12-.38-.18-.77-.37-1.56-.76-2.41-.99-1.47-.41-3.05-.78-4.62-.79-5.29-.04-10.6-.06-15.77-.06-4.18,0-8.38,.01-12.49,.04-7.41,.04-13.77,5.86-14.47,13.24l-.09,.9h5.31v1.41h-2.59c-1.05,0-2.1,0-3.14,0h0c-.11,0-.21,0-.31,0-.11,0-.23,0-.34,0-.22,0-.52,0-.83,.07-1.27,.25-2.02,1.17-1.97,2.41,.05,1.24,.84,2.09,2.12,2.27,.21,.03,.42,.03,.55,.03,.09,0,.17,0,.26,0,.07,0,.15,0,.22,0H63.43c.07,0,.15,0,.22,0,.08,0,.17,0,.25,0,.22,0,.4-.01,.57-.04,1.27-.18,2.06-1.03,2.1-2.27,.04-1.23-.69-2.13-1.95-2.4-.28-.06-.54-.07-.74-.07-.1,0-.2,0-.3,0-.09,0-.17,0-.26,0-11.9,0-47.3,0-47.3,0h-.5v-1.39H62.84l-.09-.9c-.31-3.08-1.49-5.79-3.62-8.25l1-.97c2.12,2.36,3.43,5.12,3.9,8.22,.18,1.19,.69,1.86,1.76,2.31,1.44,.61,2.17,1.73,2.18,3.36,.01,1.56-.7,2.69-2.16,3.44-.16,.08-.35,.16-.57,.24-.12,.05-.25,.1-.39,.16l-.76,.31,.32,.76c.64,1.53,.69,3.02,.15,4.19l-.26,.55,.45,.41c.34,.31,.68,.59,1,.87,.67,.57,1.3,1.1,1.79,1.71,.58,.71,.54,1.69,.29,3.15l-.17,.96h2.12c1.33,0,2.66,0,3.99,0,1.33,0,2.66,0,3.99,0,1.8,0,3.59,0,5.39,.01,3.02,.02,5.74,.76,8.27,2.27l-.72,1.08c-.26-.1-.51-.21-.77-.31-1.04-.43-2.12-.87-3.23-1.18-1.08-.3-2.31-.45-3.76-.46-5.44-.02-10.76-.03-15.81-.03-4.02,0-8,0-11.83,.02-7.32,.02-13.51,5.28-14.71,12.5-.03,.18-.04,.35-.04,.53,0,.08,0,.17-.01,.28l-.05,.87h32.96v1.4h-9.1c-8.17,0-16.34,0-24.5,0h-.38c-.28,0-.58,0-.89,.06-1.31,.24-2.11,1.29-1.97,2.57,.15,1.27,1.03,2.08,2.3,2.1,.85,.01,1.67,.02,2.36,.02h1.83c.28,0,.56,0,.84,0,.08,0,.15,0,.23,0v1.38h-.1c-.19,0-.37,0-.56,0-2.33,.03-3.84,1.37-3.85,3.4,0,.95,.31,1.77,.9,2.36,.68,.68,1.69,1.04,2.92,1.04,8.38,0,16.77,0,25.15,0s17.49,0,26.24,0c2.24,0,3.77-1.33,3.82-3.31,.02-.93-.29-1.75-.91-2.38-.69-.71-1.72-1.11-2.9-1.11-2.24,0-4.48,0-6.72,0h-8.34s-30.78,0-30.78,0v-1.39h49.51c1.23,0,2.08-.26,2.62-.81,.4-.41,.6-.94,.58-1.59-.02-1.07-.6-2.35-3.25-2.35h-20.2v-1.38h19.67l-.09-.9c-.29-3.06-1.47-5.77-3.6-8.26l1.03-.99c.12,.16,.23,.31,.34,.46,.66,.88,1.35,1.8,1.79,2.76,.55,1.2,.91,2.48,1.3,3.83,.17,.61,.36,1.25,.55,1.87l.04,.13c.12,.4,.3,1.02,.89,1.17,1.34,.36,2.22,1.23,2.93,2.89v1.54c-.6,1.69-1.59,2.64-3.12,3.01l-.99,.24,.44,.92c.73,1.51,.73,2.97,.01,4.6l-.4,.91,.97,.22c1.43,.32,2.35,1.19,3.08,2.89v1.54c-.59,1.62-1.48,2.55-2.87,2.99-.82,.26-1.01,1.43-1.04,1.66-.46,3.68-2.32,7.16-5.24,9.78-2.86,2.57-6.41,4.04-10.04,4.16v-1.33c7.66-.92,12.37-5.34,14.02-13.15l.21-.99H40.39l.1,.91c.37,3.28,1.7,6.15,3.95,8.51,2.96,3.11,6.65,4.68,10.98,4.68h.03c2,0,3.99,0,5.99,0h5.9c3.63,0,7.52,0,11.45-.02,.19,0,.31,.01,.37,.02,0,.06,.01,.15,0,.31-.02,.36-.02,.65-.02,.89,0,.07,0,.15,0,.22h0c-.11,0-.23,0-.36,0-.19,0-.41,0-.66,0,0,0-1.24,0-1.84,0-2.03,0-4.06,0-6.09-.01-2.03,0-4.06-.01-6.09-.01-3.19,0-5.81,.01-8.24,.04h-.22Zm14.26-21.76c-10.08,0-20.17,0-30.25,0-.47,0-.97,.02-1.45,.17-1.1,.34-1.7,1.24-1.6,2.42,.09,1.14,.83,1.93,1.97,2.11,.27,.04,.53,.05,.72,.05,.09,0,.19,0,.28,0,.08,0,.17,0,.25,0,6.95,0,38.52,0,38.52,0h20.13c.08,0,.42,0,.51,0,.2,0,.45,0,.72-.04,1.19-.16,1.97-1.01,2.04-2.21,.06-1.15-.59-2.05-1.71-2.36-.45-.12-.91-.14-1.33-.14-9.6,0-19.21,0-28.81,0ZM5.32,38.44c.04,.21,.07,.41,.1,.6,.06,.4,.12,.78,.21,1.16,1.61,6.68,7.51,11.39,14.35,11.44,2.12,.02,4.4,.03,7.17,.03,1.81,0,3.61,0,5.42,0,1.61,0,3.21,0,4.82,0,.23,0,.44-.03,.64-.05,.09-.01,.17-.02,.27-.03l.66-.06,.07-.66c.53-4.74,2.7-8.65,6.63-11.96l1.72-1.45H18.11v-1.35H63.2c.09,0,.19,0,.28,0,.1,0,.21,0,.31,0,.25,0,.44,0,.63-.03,1.28-.14,2.08-.98,2.15-2.23,.06-1.24-.65-2.15-1.92-2.44-.3-.07-.59-.08-.82-.08-.09,0-.17,0-.26,0-.08,0-.15,0-.23,0-12.26,0-24.51,0-36.77,0H9.82c-1.85,0-3.69,0-5.54,0-.97,0-1.75,.28-2.26,.8-.42,.43-.63,.99-.62,1.63,.02,1.12,.77,2.32,2.83,2.33,.96,0,1.93,0,2.89,0h6.11s0,1.4,0,1.4H5.15l.17,.96Zm54.49-8.51c.18,0,.41,0,.65-.03,1.54-.15,2.81-1.35,3.01-2.86,.23-1.7-.71-3.22-2.27-3.7-.62-.19-1.29-.22-1.85-.22-11.02,0-22.04,0-33.05,0H8.68c-.08,0-.4,0-.49,0-.17,0-.4,0-.64,.04-1.37,.18-2.34,.92-2.83,2.13-.43,1.06-.32,2.18,.28,3.08,.67,.99,1.83,1.56,3.18,1.56,4.04,0,8.08,0,12.12,0H59.26c.09,0,.46,0,.55,0Z"/><rect class="cls-1" x="15.57" y="6.63" width="1.24" height="1.27"/><rect class="cls-1" x="22.33" y="8.89" width="1.24" height="1.27"/><rect class="cls-1" x="51.6" y="42.88" width="1.25" height="1.24"/><rect class="cls-1" x="58.35" y="45.15" width="1.23" height="1.27"/></g></g></svg>