<?xml version="1.0" encoding="UTF-8"?><svg id="Capa_2" xmlns="http://www.w3.org/2000/svg" viewBox="0 0 124.81 62.14"><defs><style>.cls-1{font-family:DancingScript-Regular, 'Dancing Script';font-size:21px;stroke-width:.18px;}.cls-1,.cls-2,.cls-3,.cls-4,.cls-5{stroke-miterlimit:10;}.cls-1,.cls-4,.cls-5{stroke:#5e184c;}.cls-1,.cls-6{fill:#5e184c;}.cls-2{stroke:#fff;stroke-width:.75px;}.cls-2,.cls-3,.cls-5{fill:none;}.cls-7{letter-spacing:-.04em;}.cls-3{stroke:#5d184c;}.cls-3,.cls-4{stroke-width:.46px;}.cls-4{fill:#f8f6f6;}.cls-5{stroke-width:.34px;}.cls-8{letter-spacing:-.04em;}.cls-9{fill:#5d184c;}</style></defs><g id="Capa_1-2"><text class="cls-1" transform="translate(62.51 38.92)"><tspan class="cls-7" x="0" y="0">P</tspan><tspan x="10.31" y="0">y</tspan><tspan class="cls-8" x="18.48" y="0">C</tspan><tspan x="28.85" y="0">akes</tspan></text><path class="cls-4" d="M16.99,33.08h24.65c.67,0,1.21,.54,1.21,1.21v11.67H15.79v-11.67c0-.67,.54-1.21,1.21-1.21Z"/><path class="cls-4" d="M20.45,23.43h17.75c.7,0,1.28,.57,1.28,1.28v8.38H19.17v-8.38c0-.7,.57-1.28,1.28-1.28Z"/><path class="cls-4" d="M22.86,16.19h12.92c.64,0,1.15,.52,1.15,1.15v6.09h-15.23v-6.09c0-.64,.52-1.15,1.15-1.15Z"/><line class="cls-5" x1="9.27" y1="45.96" x2="49.37" y2="45.96"/><g><path class="cls-6" d="M29.32,61.77c-6.35,0-12.44-1.92-17.62-5.56-2.49-1.75-4.71-3.86-6.58-6.26-1.89-2.42-3.41-5.11-4.5-7.97l-.13-.35,2.45-.93,.13,.35c4.12,10.83,14.67,18.1,26.25,18.1s22.14-7.27,26.25-18.1l.13-.35,2.45,.93-.13,.35c-1.09,2.87-2.6,5.55-4.5,7.97-1.88,2.4-4.09,4.51-6.58,6.26-5.18,3.64-11.27,5.56-17.62,5.56Z"/><path class="cls-9" d="M55.92,41.18l1.75,.66c-1.08,2.83-2.57,5.48-4.44,7.88-1.85,2.37-4.04,4.45-6.51,6.18-5.11,3.59-11.13,5.49-17.4,5.49s-12.29-1.9-17.4-5.49c-2.46-1.73-4.65-3.81-6.51-6.18-1.87-2.4-3.37-5.05-4.44-7.88l1.75-.66c4.17,10.97,14.86,18.34,26.6,18.34s22.43-7.37,26.6-18.34m-.43-.97l-.27,.7c-4.06,10.68-14.47,17.86-25.9,17.86S7.48,51.6,3.42,40.91l-.27-.7-.7,.27-1.75,.66-.7,.27,.27,.7c1.1,2.9,2.63,5.62,4.55,8.07,1.9,2.43,4.14,4.56,6.67,6.34,5.24,3.68,11.41,5.63,17.84,5.63s12.59-1.95,17.84-5.63c2.52-1.77,4.77-3.9,6.67-6.34,1.92-2.46,3.45-5.17,4.55-8.07l.27-.7-.7-.27-1.75-.66-.7-.27h0Z"/></g><path class="cls-2" d="M56.8,41.51c-4.21,11.08-14.93,18.95-27.48,18.95S6.05,52.59,1.84,41.51"/><g><path class="cls-6" d="M55.57,21.1C51.46,10.27,40.91,2.99,29.32,2.99S7.18,10.27,3.06,21.1l-.13,.35-2.45-.93,.13-.35c1.09-2.87,2.6-5.55,4.5-7.97,1.88-2.4,4.09-4.51,6.58-6.26C16.88,2.3,22.97,.37,29.32,.37s12.44,1.92,17.62,5.56c2.49,1.75,4.71,3.86,6.58,6.26,1.89,2.42,3.41,5.11,4.5,7.97l.13,.35-2.45,.93-.13-.35Z"/><path class="cls-9" d="M29.32,.75c6.27,0,12.29,1.9,17.4,5.49,2.46,1.73,4.65,3.81,6.51,6.18,1.87,2.4,3.37,5.05,4.44,7.88l-1.75,.66C51.75,9.99,41.06,2.62,29.32,2.62S6.89,9.99,2.71,20.96l-1.75-.66c1.08-2.83,2.57-5.48,4.44-7.88,1.85-2.37,4.04-4.45,6.51-6.18C17.03,2.65,23.05,.75,29.32,.75m0-.75c-6.43,0-12.59,1.95-17.84,5.63-2.52,1.77-4.77,3.9-6.67,6.34-1.92,2.46-3.45,5.17-4.55,8.07l-.27,.7,.7,.27,1.75,.66,.7,.27,.27-.7C7.48,10.55,17.89,3.37,29.32,3.37s21.84,7.18,25.9,17.86l.27,.7,.7-.27,1.75-.66,.7-.27-.27-.7c-1.1-2.9-2.63-5.62-4.55-8.07-1.9-2.43-4.14-4.56-6.67-6.34C41.91,1.95,35.75,0,29.32,0h0Z"/></g><path class="cls-2" d="M1.84,20.63C6.05,9.55,16.77,1.68,29.32,1.68s23.27,7.87,27.48,18.95"/><path class="cls-3" d="M15.79,36.21c1.93,0,1.93,2.85,3.86,2.85s1.93-2.85,3.87-2.85,1.93,2.85,3.86,2.85,1.93-2.85,3.86-2.85,1.93,2.85,3.87,2.85,1.94-2.85,3.87-2.85,1.94,2.85,3.87,2.85"/><path class="cls-3" d="M19.17,25.15c1.45,0,1.45,2.44,2.9,2.44s1.45-2.44,2.9-2.44,1.45,2.44,2.9,2.44,1.45-2.44,2.9-2.44,1.45,2.44,2.9,2.44,1.45-2.44,2.9-2.44,1.45,2.44,2.9,2.44"/><path class="cls-3" d="M21.71,17.19c1.08,0,1.08,1.9,2.17,1.9s1.09-1.9,2.17-1.9,1.09,1.9,2.17,1.9,1.09-1.9,2.18-1.9,1.09,1.9,2.18,1.9,1.09-1.9,2.18-1.9,1.09,1.9,2.18,1.9"/></g></svg>