<?xml version="1.0" encoding="UTF-8"?><svg id="Capa_2" xmlns="http://www.w3.org/2000/svg" viewBox="0 0 1031.6 1103.28"><defs><style>.cls-1,.cls-2,.cls-3,.cls-4,.cls-5{stroke-miterlimit:10;}.cls-1,.cls-2,.cls-5{stroke:#60014a;}.cls-1,.cls-3,.cls-5{stroke-width:5px;}.cls-1,.cls-4,.cls-6{fill:#f7f6f6;}.cls-2{stroke-width:4px;}.cls-2,.cls-3,.cls-5{fill:none;}.cls-7{letter-spacing:0em;}.cls-3,.cls-4{stroke:#fff;}.cls-8{letter-spacing:-.04em;}.cls-9{letter-spacing:-.04em;}.cls-4{font-family:DancingScript-Regular, 'Dancing Script';font-size:172px;stroke-width:.75px;}</style></defs><g id="Object"><g><path class="cls-6" d="M515.8,1103.28c-114.09,0-223.58-34.53-316.64-99.87-44.81-31.46-84.63-69.31-118.36-112.49-34.04-43.59-61.23-91.79-80.81-143.29l31.78-12.08c75.89,199.61,270.4,333.72,484.02,333.72s408.13-134.11,484.02-333.72l31.78,12.08c-19.58,51.49-46.76,99.7-80.81,143.29-33.72,43.18-73.54,81.02-118.36,112.49-93.05,65.33-202.54,99.87-316.63,99.87Z"/><path class="cls-6" d="M999.82,367.72C923.93,168.11,729.41,34,515.8,34S107.67,168.11,31.78,367.72L0,355.64c19.58-51.49,46.76-99.7,80.81-143.29,33.72-43.18,73.54-81.02,118.36-112.49C292.21,34.53,401.71,0,515.8,0s223.58,34.53,316.63,99.87c44.81,31.46,84.63,69.31,118.36,112.49,34.04,43.59,61.23,91.79,80.81,143.29l-31.78,12.08Z"/><path class="cls-1" d="M334.22,498.5h363.17c9.81,0,17.78,7.97,17.78,17.78v171.86H316.44v-171.86c0-9.81,7.97-17.78,17.78-17.78Z"/><path class="cls-1" d="M385.08,356.27h261.44c10.38,0,18.8,8.42,18.8,18.8v123.43H366.28v-123.43c0-10.38,8.42-18.8,18.8-18.8Z"/><path class="cls-1" d="M420.67,249.6h190.26c9.39,0,17.01,7.62,17.01,17.01v89.66h-224.28v-89.66c0-9.39,7.62-17.01,17.01-17.01Z"/><path class="cls-5" d="M316.44,544.54c28.48,0,28.48,42,56.96,42s28.48-42,56.96-42,28.48,42,56.96,42,28.48-42,56.96-42,28.48,42,56.96,42,28.48-42,56.97-42,28.48,42,56.97,42"/><path class="cls-5" d="M366.28,381.61c21.36,0,21.36,36,42.71,36s21.36-36,42.72-36,21.36,36,42.72,36,21.36-36,42.72-36,21.36,36,42.72,36,21.36-36,42.73-36,21.36,36,42.73,36"/><path class="cls-5" d="M403.66,264.34c16.02,0,16.02,28,32.04,28s16.02-28,32.04-28,16.02,28,32.04,28,16.02-28,32.04-28,16.02,28,32.04,28,16.02-28,32.04-28,16.02,28,32.04,28"/><line class="cls-3" x1="220.4" y1="688.14" x2="811.2" y2="688.14"/><text class="cls-4" transform="translate(252.61 853.68)"><tspan class="cls-8" x="0" y="0">P</tspan><tspan class="cls-7" x="84.45" y="0">y</tspan><tspan class="cls-9" x="151.36" y="0">C</tspan><tspan x="236.33" y="0">akes</tspan></text><path class="cls-2" d="M1015.71,741.6c-76.61,201.49-271.54,344.68-499.91,344.68S92.5,943.09,15.89,741.6"/><path class="cls-2" d="M15.89,361.68C92.5,160.19,287.43,17,515.8,17s423.3,143.19,499.91,344.68"/></g></g></svg>